<svg xmlns="http://www.w3.org/2000/svg" xmlns:xlink="http://www.w3.org/1999/xlink" contentStyleType="text/css" height="619px" preserveAspectRatio="none" style="width:525px;height:619px;background:#FFFFFF;" version="1.1" viewBox="0 0 525 619" width="525px" zoomAndPan="magnify"><defs/><g><!--cluster 2567a5ec9705eb7ac2c984033e06189d--><g id="cluster_2567a5ec9705eb7ac2c984033e06189d"><polygon fill="none" points="16,24.15,26,14.15,168,14.15,168,501.48,158,511.48,16,511.48,16,24.15" style="stroke:#181818;stroke-width:1.0;"/><line style="stroke:#181818;stroke-width:1.0;" x1="158" x2="168" y1="24.15" y2="14.15"/><line style="stroke:#181818;stroke-width:1.0;" x1="16" x2="158" y1="24.15" y2="24.15"/><line style="stroke:#181818;stroke-width:1.0;" x1="158" x2="158" y1="24.15" y2="511.48"/><text fill="#000000" font-family="sans-serif" font-size="14" font-weight="bold" lengthAdjust="spacing" textLength="35" x="70.5" y="40.1451">Web</text></g><!--cluster d77d5e503ad1439f585ac494268b351b--><g id="cluster_d77d5e503ad1439f585ac494268b351b"><polygon fill="none" points="254,16,264,6,508,6,508,501.48,498,511.48,254,511.48,254,16" style="stroke:#181818;stroke-width:1.0;"/><line style="stroke:#181818;stroke-width:1.0;" x1="498" x2="508" y1="16" y2="6"/><line style="stroke:#181818;stroke-width:1.0;" x1="254" x2="498" y1="16" y2="16"/><line style="stroke:#181818;stroke-width:1.0;" x1="498" x2="498" y1="16" y2="511.48"/><text fill="#000000" font-family="sans-serif" font-size="14" font-weight="bold" lengthAdjust="spacing" textLength="21" x="366.5" y="31.9951">Db</text></g><!--entity 576cdce9635f701bf147de834570a07a--><g id="elem_576cdce9635f701bf147de834570a07a"><rect fill="#F1F1F1" height="78.8906" rx="2.5" ry="2.5" style="stroke:#181818;stroke-width:0.5;" width="117" x="33.5" y="54.15"/><rect fill="#F1F1F1" height="10" style="stroke:#181818;stroke-width:0.5;" width="15" x="130.5" y="59.15"/><rect fill="#F1F1F1" height="2" style="stroke:#181818;stroke-width:0.5;" width="4" x="128.5" y="61.15"/><rect fill="#F1F1F1" height="2" style="stroke:#181818;stroke-width:0.5;" width="4" x="128.5" y="65.15"/><text fill="#000000" font-family="sans-serif" font-size="14" font-weight="bold" lengthAdjust="spacing" textLength="77" x="48.5" y="87.1451">LookBook</text><text fill="#000000" font-family="sans-serif" font-size="14" lengthAdjust="spacing" textLength="4" x="48.5" y="103.442">&#160;</text><text fill="#000000" font-family="sans-serif" font-size="14" lengthAdjust="spacing" textLength="4" x="48.5" y="119.7389">&#160;</text></g><!--entity fd433df176955d196b161b0a41a19970--><g id="elem_fd433df176955d196b161b0a41a19970"><ellipse cx="125" cy="231.19" fill="#F1F1F1" rx="8" ry="8" style="stroke:#181818;stroke-width:0.5;"/><text fill="#000000" font-family="sans-serif" font-size="14" lengthAdjust="spacing" textLength="36" x="107" y="261.1851">8000</text></g><!--entity 3b7ffba54f1639e14e801b8c6acb33bd--><g id="elem_3b7ffba54f1639e14e801b8c6acb33bd"><rect fill="#F1F1F1" height="39.2969" rx="2.5" ry="2.5" style="stroke:#181818;stroke-width:0.5;" width="119" x="32.5" y="456.19"/><polygon fill="#F1F1F1" points="134.5,461.19,134.5,475.19,146.5,475.19,146.5,467.19,140.5,461.19,134.5,461.19" style="stroke:#181818;stroke-width:0.5;"/><line style="stroke:#181818;stroke-width:0.5;" x1="140.5" x2="140.5" y1="461.19" y2="467.19"/><line style="stroke:#181818;stroke-width:0.5;" x1="146.5" x2="140.5" y1="467.19" y2="467.19"/><text fill="#000000" font-family="sans-serif" font-size="14" lengthAdjust="spacing" textLength="89" x="42.5" y="482.1851">/usr/src/app/</text></g><!--entity 2b5dec363912c592b039d032dbb2673a--><g id="elem_2b5dec363912c592b039d032dbb2673a"><rect fill="#F1F1F1" height="95.1875" rx="2.5" ry="2.5" style="stroke:#181818;stroke-width:0.5;" width="222" x="270" y="46"/><rect fill="#F1F1F1" height="10" style="stroke:#181818;stroke-width:0.5;" width="15" x="472" y="51"/><rect fill="#F1F1F1" height="2" style="stroke:#181818;stroke-width:0.5;" width="4" x="470" y="53"/><rect fill="#F1F1F1" height="2" style="stroke:#181818;stroke-width:0.5;" width="4" x="470" y="57"/><text fill="#000000" font-family="sans-serif" font-size="14" font-weight="bold" lengthAdjust="spacing" textLength="71" x="285" y="78.9951">postgres</text><text fill="#000000" font-family="sans-serif" font-size="14" lengthAdjust="spacing" textLength="4" x="285" y="95.292">&#160;</text><text fill="#000000" font-family="sans-serif" font-size="14" lengthAdjust="spacing" textLength="182" x="285" y="111.5889">image: postgres:15-alpine</text><text fill="#000000" font-family="sans-serif" font-size="14" lengthAdjust="spacing" textLength="4" x="285" y="127.8857">&#160;</text></g><!--entity a6bcfd94783d6e8f719cef1ba92ab15b--><g id="elem_a6bcfd94783d6e8f719cef1ba92ab15b"><rect fill="#F1F1F1" height="39.2969" rx="2.5" ry="2.5" style="stroke:#181818;stroke-width:0.5;" width="194" x="284" y="456.19"/><polygon fill="#F1F1F1" points="461,461.19,461,475.19,473,475.19,473,467.19,467,461.19,461,461.19" style="stroke:#181818;stroke-width:0.5;"/><line style="stroke:#181818;stroke-width:0.5;" x1="467" x2="467" y1="461.19" y2="467.19"/><line style="stroke:#181818;stroke-width:0.5;" x1="473" x2="467" y1="467.19" y2="467.19"/><text fill="#000000" font-family="sans-serif" font-size="14" lengthAdjust="spacing" textLength="164" x="294" y="482.1851">/var/lib/postgresql/data/</text></g><!--entity 1624c420083928ef3e240dd88f2e52f0--><g id="elem_1624c420083928ef3e240dd88f2e52f0"><ellipse cx="211" cy="366.19" fill="#F1F1F1" rx="8" ry="8" style="stroke:#181818;stroke-width:0.5;"/><text fill="#000000" font-family="sans-serif" font-size="14" lengthAdjust="spacing" textLength="36" x="193" y="396.1851">8000</text></g><!--entity 58b9e70b65a77700ba66e9c64d6b9f89--><g id="elem_58b9e70b65a77700ba66e9c64d6b9f89"><rect fill="#F1F1F1" height="39.2969" rx="2.5" ry="2.5" style="stroke:#181818;stroke-width:0.5;" width="34" x="75" y="574.48"/><polygon fill="#F1F1F1" points="92,579.48,92,593.48,104,593.48,104,585.48,98,579.48,92,579.48" style="stroke:#181818;stroke-width:0.5;"/><line style="stroke:#181818;stroke-width:0.5;" x1="98" x2="98" y1="579.48" y2="585.48"/><line style="stroke:#181818;stroke-width:0.5;" x1="104" x2="98" y1="585.48" y2="585.48"/><text fill="#000000" font-family="sans-serif" font-size="14" lengthAdjust="spacing" textLength="4" x="85" y="600.4751">.</text></g><!--entity 1b3bff591894c324e6d0194254b68417--><g id="elem_1b3bff591894c324e6d0194254b68417"><rect fill="#F1F1F1" height="39.2969" rx="2.5" ry="2.5" style="stroke:#181818;stroke-width:0.5;" width="129" x="316.5" y="574.48"/><polygon fill="#F1F1F1" points="428.5,579.48,428.5,593.48,440.5,593.48,440.5,585.48,434.5,579.48,428.5,579.48" style="stroke:#181818;stroke-width:0.5;"/><line style="stroke:#181818;stroke-width:0.5;" x1="434.5" x2="434.5" y1="579.48" y2="585.48"/><line style="stroke:#181818;stroke-width:0.5;" x1="440.5" x2="434.5" y1="585.48" y2="585.48"/><text fill="#000000" font-family="sans-serif" font-size="14" lengthAdjust="spacing" textLength="99" x="326.5" y="600.4751">postgres_data</text></g><!--link 576cdce9635f701bf147de834570a07a to fd433df176955d196b161b0a41a19970--><g id="link_576cdce9635f701bf147de834570a07a_fd433df176955d196b161b0a41a19970"><path codeLine="23" d="M101.46,133.45 C109,164.44 118.96,205.36 123.08,222.31 " fill="none" id="576cdce9635f701bf147de834570a07a-fd433df176955d196b161b0a41a19970" style="stroke:#181818;stroke-width:1.0;"/></g><!--link fd433df176955d196b161b0a41a19970 to 1624c420083928ef3e240dd88f2e52f0--><g id="link_fd433df176955d196b161b0a41a19970_1624c420083928ef3e240dd88f2e52f0"><path codeLine="24" d="M130.12,240.11 C145.45,263.82 190.86,334.04 206.01,357.47 " fill="none" id="fd433df176955d196b161b0a41a19970-1624c420083928ef3e240dd88f2e52f0" style="stroke:#181818;stroke-width:1.0;"/></g><!--link 3b7ffba54f1639e14e801b8c6acb33bd to 58b9e70b65a77700ba66e9c64d6b9f89--><g id="link_3b7ffba54f1639e14e801b8c6acb33bd_58b9e70b65a77700ba66e9c64d6b9f89"><path codeLine="25" d="M92,495.78 C92,517.4 92,552.57 92,574.2 " fill="none" id="3b7ffba54f1639e14e801b8c6acb33bd-58b9e70b65a77700ba66e9c64d6b9f89" style="stroke:#181818;stroke-width:1.0;"/><text fill="#000000" font-family="sans-serif" font-size="13" lengthAdjust="spacing" textLength="14" x="93" y="540.5469">rw</text></g><!--link 576cdce9635f701bf147de834570a07a to 3b7ffba54f1639e14e801b8c6acb33bd--><g id="link_576cdce9635f701bf147de834570a07a_3b7ffba54f1639e14e801b8c6acb33bd"><path codeLine="26" d="M87.07,133.36 C84.72,153.8 82.17,179.31 81,202.19 C76.14,297.52 85.169,405.7182 89.479,450.0182 " fill="none" id="576cdce9635f701bf147de834570a07a-to-3b7ffba54f1639e14e801b8c6acb33bd" style="stroke:#181818;stroke-width:1.0;stroke-dasharray:7.0,7.0;"/><polygon fill="#181818" points="90.06,455.99,93.1697,446.645,89.5758,451.0135,85.2073,447.4196,90.06,455.99" style="stroke:#181818;stroke-width:1.0;"/><text fill="#000000" font-family="sans-serif" font-size="13" lengthAdjust="spacing" textLength="23" x="81" y="303.2569">use</text></g><!--link a6bcfd94783d6e8f719cef1ba92ab15b to 1b3bff591894c324e6d0194254b68417--><g id="link_a6bcfd94783d6e8f719cef1ba92ab15b_1b3bff591894c324e6d0194254b68417"><path codeLine="27" d="M381,495.78 C381,517.4 381,552.57 381,574.2 " fill="none" id="a6bcfd94783d6e8f719cef1ba92ab15b-1b3bff591894c324e6d0194254b68417" style="stroke:#181818;stroke-width:1.0;"/><text fill="#000000" font-family="sans-serif" font-size="13" lengthAdjust="spacing" textLength="14" x="382" y="540.5469">rw</text></g><!--link 2b5dec363912c592b039d032dbb2673a to a6bcfd94783d6e8f719cef1ba92ab15b--><g id="link_2b5dec363912c592b039d032dbb2673a_a6bcfd94783d6e8f719cef1ba92ab15b"><path codeLine="28" d="M381,141.6 C381,225.65 381,392.27 381,449.75 " fill="none" id="2b5dec363912c592b039d032dbb2673a-to-a6bcfd94783d6e8f719cef1ba92ab15b" style="stroke:#181818;stroke-width:1.0;stroke-dasharray:7.0,7.0;"/><polygon fill="#181818" points="381,455.75,385,446.75,381,450.75,377,446.75,381,455.75" style="stroke:#181818;stroke-width:1.0;"/><text fill="#000000" font-family="sans-serif" font-size="13" lengthAdjust="spacing" textLength="23" x="382" y="303.2569">use</text></g><!--SRC=[XP8xhnCn48Lx_mfhAuYKh5_ZHmeAH4bFWH2QiSVHwYRPi9lBHKByTpOlARTouSQQn_dE7DplnxV3y6SuxiHnB2oxRqoTn5aQy061SmeAc09carDqobfMNiTKv5yXytWuZKS-dYK4dqlcv2tKe3HLxKBXQ1q4XIgW_2vMgw_Z-F9vUQkL4EA7-F1HTb4fTLrNYxEsL1ry0YWwUT9UaqAdKQT5Wy3fF5JCPzdrh_FKprFkyNJghysMGgs4uAhsDh5s71SDCNlCP2qLyUyEz-N6La8emA0i5krigX01iqlE-4WMDBrdCmI5irqcQvCX6L8s5MLD8J8-s1lRQPpFkudd2zjmm1rlvUDhgs6D-zDmv0lr4yTldFhzGFsZyDU-BtZ66nDwohKa5w8jdcCDEcMkcZ0P90sqCBqpK7lZiZDAHPjCv6hPE5LAZDKmcFfiuERQ094I1qKUC8IW5A7tdB9tnLEgCJqrF0J-lCYxRIDBjK9Qak2oDOvzKNen41pvw7GGpK2ioxfzz5R1TKgJl1MFwvIM7N8hk-cjQuDjDcMp-TJCv6NUwyoTQ1twnjZm-w6kcTMxkkRIkxh_]--></g></svg>