<svg xmlns="http://www.w3.org/2000/svg" xmlns:xlink="http://www.w3.org/1999/xlink" contentStyleType="text/css" height="574px" preserveAspectRatio="none" style="width:2324px;height:574px;background:#FFFFFF;" version="1.1" viewBox="0 0 2324 574" width="2324px" zoomAndPan="magnify"><defs/><g><!--cluster 71ef00066cd87ae3b91860328438e4ae--><g id="cluster_71ef00066cd87ae3b91860328438e4ae"><path d="M8.5,6 L91.5,6 A3.75,3.75 0 0 1 94,8.5 L101,28.2969 L105.5,28.2969 A2.5,2.5 0 0 1 108,30.7969 L108,133.39 A2.5,2.5 0 0 1 105.5,135.89 L8.5,135.89 A2.5,2.5 0 0 1 6,133.39 L6,8.5 A2.5,2.5 0 0 1 8.5,6 " fill="none" style="stroke:#000000;stroke-width:1.5;"/><line style="stroke:#000000;stroke-width:1.5;" x1="6" x2="101" y1="28.2969" y2="28.2969"/><text fill="#000000" font-family="sans-serif" font-size="14" font-weight="bold" lengthAdjust="spacing" textLength="82" x="10" y="20.9951">LookBook/</text></g><!--cluster 1904959ce93db16f88b0735e4a66e1a2--><g id="cluster_1904959ce93db16f88b0735e4a66e1a2"><path d="M134.5,6 L176.5,6 A3.75,3.75 0 0 1 179,8.5 L186,28.2969 L2314.5,28.2969 A2.5,2.5 0 0 1 2317,30.7969 L2317,565.06 A2.5,2.5 0 0 1 2314.5,567.56 L134.5,567.56 A2.5,2.5 0 0 1 132,565.06 L132,8.5 A2.5,2.5 0 0 1 134.5,6 " fill="none" style="stroke:#000000;stroke-width:1.5;"/><line style="stroke:#000000;stroke-width:1.5;" x1="132" x2="186" y1="28.2969" y2="28.2969"/><text fill="#000000" font-family="sans-serif" font-size="14" font-weight="bold" lengthAdjust="spacing" textLength="41" x="136" y="20.9951">core/</text></g><!--cluster 5cb2a4db610b478c7feb15b1dd5a0101--><g id="cluster_5cb2a4db610b478c7feb15b1dd5a0101"><path d="M158.5,159.89 L204.5,159.89 A3.75,3.75 0 0 1 207,162.39 L214,182.1869 L1757.5,182.1869 A2.5,2.5 0 0 1 1760,184.6869 L1760,426.17 A2.5,2.5 0 0 1 1757.5,428.67 L158.5,428.67 A2.5,2.5 0 0 1 156,426.17 L156,162.39 A2.5,2.5 0 0 1 158.5,159.89 " fill="none" style="stroke:#000000;stroke-width:1.5;"/><line style="stroke:#000000;stroke-width:1.5;" x1="156" x2="214" y1="182.1869" y2="182.1869"/><text fill="#000000" font-family="sans-serif" font-size="14" font-weight="bold" lengthAdjust="spacing" textLength="45" x="160" y="174.8851">tests/</text></g><!--entity 0ae19a71f41bd2b09e1dab5271b0e241--><g id="elem_0ae19a71f41bd2b09e1dab5271b0e241"><rect fill="#F1F1F1" height="78.8906" rx="2.5" ry="2.5" style="stroke:#181818;stroke-width:0.5;" width="70" x="22" y="41"/><rect fill="#F1F1F1" height="10" style="stroke:#181818;stroke-width:0.5;" width="15" x="72" y="46"/><rect fill="#F1F1F1" height="2" style="stroke:#181818;stroke-width:0.5;" width="4" x="70" y="48"/><rect fill="#F1F1F1" height="2" style="stroke:#181818;stroke-width:0.5;" width="4" x="70" y="52"/><text fill="#000000" font-family="sans-serif" font-size="14" font-weight="bold" lengthAdjust="spacing" textLength="30" x="37" y="73.9951">urls</text><text fill="#000000" font-family="sans-serif" font-size="14" lengthAdjust="spacing" textLength="4" x="37" y="90.292">&#160;</text><text fill="#000000" font-family="sans-serif" font-size="14" lengthAdjust="spacing" textLength="4" x="37" y="106.5889">&#160;</text></g><!--entity 6ad1920dad0c0ea8cbee92c2d4bcd7bb--><g id="elem_6ad1920dad0c0ea8cbee92c2d4bcd7bb"><rect fill="#F1F1F1" height="78.8906" rx="2.5" ry="2.5" style="stroke:#181818;stroke-width:0.5;" width="70" x="2040" y="41"/><rect fill="#F1F1F1" height="10" style="stroke:#181818;stroke-width:0.5;" width="15" x="2090" y="46"/><rect fill="#F1F1F1" height="2" style="stroke:#181818;stroke-width:0.5;" width="4" x="2088" y="48"/><rect fill="#F1F1F1" height="2" style="stroke:#181818;stroke-width:0.5;" width="4" x="2088" y="52"/><text fill="#000000" font-family="sans-serif" font-size="14" font-weight="bold" lengthAdjust="spacing" textLength="30" x="2055" y="73.9951">urls</text><text fill="#000000" font-family="sans-serif" font-size="14" lengthAdjust="spacing" textLength="4" x="2055" y="90.292">&#160;</text><text fill="#000000" font-family="sans-serif" font-size="14" lengthAdjust="spacing" textLength="4" x="2055" y="106.5889">&#160;</text></g><!--entity 64385eb3483cd0650e0b58b20e8aa8fe--><g id="elem_64385eb3483cd0650e0b58b20e8aa8fe"><rect fill="#F1F1F1" height="78.8906" rx="2.5" ry="2.5" style="stroke:#181818;stroke-width:0.5;" width="136" x="2007" y="333.78"/><rect fill="#F1F1F1" height="10" style="stroke:#181818;stroke-width:0.5;" width="15" x="2123" y="338.78"/><rect fill="#F1F1F1" height="2" style="stroke:#181818;stroke-width:0.5;" width="4" x="2121" y="340.78"/><rect fill="#F1F1F1" height="2" style="stroke:#181818;stroke-width:0.5;" width="4" x="2121" y="344.78"/><text fill="#000000" font-family="sans-serif" font-size="14" font-weight="bold" lengthAdjust="spacing" textLength="96" x="2022" y="366.7751">permissions</text><text fill="#000000" font-family="sans-serif" font-size="14" lengthAdjust="spacing" textLength="4" x="2022" y="383.072">&#160;</text><text fill="#000000" font-family="sans-serif" font-size="14" lengthAdjust="spacing" textLength="4" x="2022" y="399.3689">&#160;</text></g><!--entity efa2d30e0fcad0ad7c6d9f8860505d0a--><g id="elem_efa2d30e0fcad0ad7c6d9f8860505d0a"><rect fill="#F1F1F1" height="78.8906" rx="2.5" ry="2.5" style="stroke:#181818;stroke-width:0.5;" width="86" x="2032" y="194.89"/><rect fill="#F1F1F1" height="10" style="stroke:#181818;stroke-width:0.5;" width="15" x="2098" y="199.89"/><rect fill="#F1F1F1" height="2" style="stroke:#181818;stroke-width:0.5;" width="4" x="2096" y="201.89"/><rect fill="#F1F1F1" height="2" style="stroke:#181818;stroke-width:0.5;" width="4" x="2096" y="205.89"/><text fill="#000000" font-family="sans-serif" font-size="14" font-weight="bold" lengthAdjust="spacing" textLength="46" x="2047" y="227.8851">views</text><text fill="#000000" font-family="sans-serif" font-size="14" lengthAdjust="spacing" textLength="4" x="2047" y="244.182">&#160;</text><text fill="#000000" font-family="sans-serif" font-size="14" lengthAdjust="spacing" textLength="4" x="2047" y="260.4789">&#160;</text></g><!--entity a917fec99302ce1d5ab62bdfb17ed693--><g id="elem_a917fec99302ce1d5ab62bdfb17ed693"><rect fill="#F1F1F1" height="78.8906" rx="2.5" ry="2.5" style="stroke:#181818;stroke-width:0.5;" width="122" x="1776" y="333.78"/><rect fill="#F1F1F1" height="10" style="stroke:#181818;stroke-width:0.5;" width="15" x="1878" y="338.78"/><rect fill="#F1F1F1" height="2" style="stroke:#181818;stroke-width:0.5;" width="4" x="1876" y="340.78"/><rect fill="#F1F1F1" height="2" style="stroke:#181818;stroke-width:0.5;" width="4" x="1876" y="344.78"/><text fill="#000000" font-family="sans-serif" font-size="14" font-weight="bold" lengthAdjust="spacing" textLength="82" x="1791" y="366.7751">serializers</text><text fill="#000000" font-family="sans-serif" font-size="14" lengthAdjust="spacing" textLength="4" x="1791" y="383.072">&#160;</text><text fill="#000000" font-family="sans-serif" font-size="14" lengthAdjust="spacing" textLength="4" x="1791" y="399.3689">&#160;</text></g><!--entity e19b38ed2f03d9752728dac82cb302f8--><g id="elem_e19b38ed2f03d9752728dac82cb302f8"><rect fill="#F1F1F1" height="78.8906" rx="2.5" ry="2.5" style="stroke:#181818;stroke-width:0.5;" width="78" x="2184" y="41"/><rect fill="#F1F1F1" height="10" style="stroke:#181818;stroke-width:0.5;" width="15" x="2242" y="46"/><rect fill="#F1F1F1" height="2" style="stroke:#181818;stroke-width:0.5;" width="4" x="2240" y="48"/><rect fill="#F1F1F1" height="2" style="stroke:#181818;stroke-width:0.5;" width="4" x="2240" y="52"/><text fill="#000000" font-family="sans-serif" font-size="14" font-weight="bold" lengthAdjust="spacing" textLength="38" x="2199" y="73.9951">apps</text><text fill="#000000" font-family="sans-serif" font-size="14" lengthAdjust="spacing" textLength="4" x="2199" y="90.292">&#160;</text><text fill="#000000" font-family="sans-serif" font-size="14" lengthAdjust="spacing" textLength="4" x="2199" y="106.5889">&#160;</text></g><!--entity 04ed2a840efa60807caaff5fd7e340cd--><g id="elem_04ed2a840efa60807caaff5fd7e340cd"><rect fill="#F1F1F1" height="78.8906" rx="2.5" ry="2.5" style="stroke:#181818;stroke-width:0.5;" width="97" x="1885.5" y="472.67"/><rect fill="#F1F1F1" height="10" style="stroke:#181818;stroke-width:0.5;" width="15" x="1962.5" y="477.67"/><rect fill="#F1F1F1" height="2" style="stroke:#181818;stroke-width:0.5;" width="4" x="1960.5" y="479.67"/><rect fill="#F1F1F1" height="2" style="stroke:#181818;stroke-width:0.5;" width="4" x="1960.5" y="483.67"/><text fill="#000000" font-family="sans-serif" font-size="14" font-weight="bold" lengthAdjust="spacing" textLength="57" x="1900.5" y="505.6651">models</text><text fill="#000000" font-family="sans-serif" font-size="14" lengthAdjust="spacing" textLength="4" x="1900.5" y="521.962">&#160;</text><text fill="#000000" font-family="sans-serif" font-size="14" lengthAdjust="spacing" textLength="4" x="1900.5" y="538.2589">&#160;</text></g><!--entity f9131189287ead50d1eb105f6b61629e--><g id="elem_f9131189287ead50d1eb105f6b61629e"><rect fill="#F1F1F1" height="78.8906" rx="2.5" ry="2.5" style="stroke:#181818;stroke-width:0.5;" width="87" x="2214.5" y="333.78"/><rect fill="#F1F1F1" height="10" style="stroke:#181818;stroke-width:0.5;" width="15" x="2281.5" y="338.78"/><rect fill="#F1F1F1" height="2" style="stroke:#181818;stroke-width:0.5;" width="4" x="2279.5" y="340.78"/><rect fill="#F1F1F1" height="2" style="stroke:#181818;stroke-width:0.5;" width="4" x="2279.5" y="344.78"/><text fill="#000000" font-family="sans-serif" font-size="14" font-weight="bold" lengthAdjust="spacing" textLength="47" x="2229.5" y="366.7751">admin</text><text fill="#000000" font-family="sans-serif" font-size="14" lengthAdjust="spacing" textLength="4" x="2229.5" y="383.072">&#160;</text><text fill="#000000" font-family="sans-serif" font-size="14" lengthAdjust="spacing" textLength="4" x="2229.5" y="399.3689">&#160;</text></g><!--entity 26f34cccec7583e52d34108331029609--><g id="elem_26f34cccec7583e52d34108331029609"><rect fill="#F1F1F1" height="78.8906" rx="2.5" ry="2.5" style="stroke:#181818;stroke-width:0.5;" width="295" x="1449.5" y="194.89"/><rect fill="#F1F1F1" height="10" style="stroke:#181818;stroke-width:0.5;" width="15" x="1724.5" y="199.89"/><rect fill="#F1F1F1" height="2" style="stroke:#181818;stroke-width:0.5;" width="4" x="1722.5" y="201.89"/><rect fill="#F1F1F1" height="2" style="stroke:#181818;stroke-width:0.5;" width="4" x="1722.5" y="205.89"/><text fill="#000000" font-family="sans-serif" font-size="14" font-weight="bold" lengthAdjust="spacing" textLength="255" x="1464.5" y="227.8851">test_read_only_clothes_view_set</text><text fill="#000000" font-family="sans-serif" font-size="14" lengthAdjust="spacing" textLength="4" x="1464.5" y="244.182">&#160;</text><text fill="#000000" font-family="sans-serif" font-size="14" lengthAdjust="spacing" textLength="4" x="1464.5" y="260.4789">&#160;</text></g><!--entity dbbde3a7b28bf0c2916a46791a91e128--><g id="elem_dbbde3a7b28bf0c2916a46791a91e128"><rect fill="#F1F1F1" height="78.8906" rx="2.5" ry="2.5" style="stroke:#181818;stroke-width:0.5;" width="386" x="1029" y="194.89"/><rect fill="#F1F1F1" height="10" style="stroke:#181818;stroke-width:0.5;" width="15" x="1395" y="199.89"/><rect fill="#F1F1F1" height="2" style="stroke:#181818;stroke-width:0.5;" width="4" x="1393" y="201.89"/><rect fill="#F1F1F1" height="2" style="stroke:#181818;stroke-width:0.5;" width="4" x="1393" y="205.89"/><text fill="#000000" font-family="sans-serif" font-size="14" font-weight="bold" lengthAdjust="spacing" textLength="346" x="1044" y="227.8851">test_look_images_retrieve_destroy_api_view</text><text fill="#000000" font-family="sans-serif" font-size="14" lengthAdjust="spacing" textLength="4" x="1044" y="244.182">&#160;</text><text fill="#000000" font-family="sans-serif" font-size="14" lengthAdjust="spacing" textLength="4" x="1044" y="260.4789">&#160;</text></g><!--entity a3a242aeb674c60b23120d5a3b382e96--><g id="elem_a3a242aeb674c60b23120d5a3b382e96"><rect fill="#F1F1F1" height="78.8906" rx="2.5" ry="2.5" style="stroke:#181818;stroke-width:0.5;" width="217" x="463.5" y="194.89"/><rect fill="#F1F1F1" height="10" style="stroke:#181818;stroke-width:0.5;" width="15" x="660.5" y="199.89"/><rect fill="#F1F1F1" height="2" style="stroke:#181818;stroke-width:0.5;" width="4" x="658.5" y="201.89"/><rect fill="#F1F1F1" height="2" style="stroke:#181818;stroke-width:0.5;" width="4" x="658.5" y="205.89"/><text fill="#000000" font-family="sans-serif" font-size="14" font-weight="bold" lengthAdjust="spacing" textLength="177" x="478.5" y="227.8851">test_my_look_view_set</text><text fill="#000000" font-family="sans-serif" font-size="14" lengthAdjust="spacing" textLength="4" x="478.5" y="244.182">&#160;</text><text fill="#000000" font-family="sans-serif" font-size="14" lengthAdjust="spacing" textLength="4" x="478.5" y="260.4789">&#160;</text></g><!--entity 014a1bda34063d4b9b705f26053ff3c3--><g id="elem_014a1bda34063d4b9b705f26053ff3c3"><rect fill="#F1F1F1" height="78.8906" rx="2.5" ry="2.5" style="stroke:#181818;stroke-width:0.5;" width="73" x="1112.5" y="333.78"/><rect fill="#F1F1F1" height="10" style="stroke:#181818;stroke-width:0.5;" width="15" x="1165.5" y="338.78"/><rect fill="#F1F1F1" height="2" style="stroke:#181818;stroke-width:0.5;" width="4" x="1163.5" y="340.78"/><rect fill="#F1F1F1" height="2" style="stroke:#181818;stroke-width:0.5;" width="4" x="1163.5" y="344.78"/><text fill="#000000" font-family="sans-serif" font-size="14" font-weight="bold" lengthAdjust="spacing" textLength="33" x="1127.5" y="366.7751">utils</text><text fill="#000000" font-family="sans-serif" font-size="14" lengthAdjust="spacing" textLength="4" x="1127.5" y="383.072">&#160;</text><text fill="#000000" font-family="sans-serif" font-size="14" lengthAdjust="spacing" textLength="4" x="1127.5" y="399.3689">&#160;</text></g><!--entity 95d8cc67193f685d124b023fc1cf68cf--><g id="elem_95d8cc67193f685d124b023fc1cf68cf"><rect fill="#F1F1F1" height="78.8906" rx="2.5" ry="2.5" style="stroke:#181818;stroke-width:0.5;" width="279" x="715.5" y="194.89"/><rect fill="#F1F1F1" height="10" style="stroke:#181818;stroke-width:0.5;" width="15" x="974.5" y="199.89"/><rect fill="#F1F1F1" height="2" style="stroke:#181818;stroke-width:0.5;" width="4" x="972.5" y="201.89"/><rect fill="#F1F1F1" height="2" style="stroke:#181818;stroke-width:0.5;" width="4" x="972.5" y="205.89"/><text fill="#000000" font-family="sans-serif" font-size="14" font-weight="bold" lengthAdjust="spacing" textLength="239" x="730.5" y="227.8851">test_read_only_looks_view_set</text><text fill="#000000" font-family="sans-serif" font-size="14" lengthAdjust="spacing" textLength="4" x="730.5" y="244.182">&#160;</text><text fill="#000000" font-family="sans-serif" font-size="14" lengthAdjust="spacing" textLength="4" x="730.5" y="260.4789">&#160;</text></g><!--entity ae25e4989aebbec81c004a56068b32d5--><g id="elem_ae25e4989aebbec81c004a56068b32d5"><rect fill="#F1F1F1" height="78.8906" rx="2.5" ry="2.5" style="stroke:#181818;stroke-width:0.5;" width="257" x="171.5" y="194.89"/><rect fill="#F1F1F1" height="10" style="stroke:#181818;stroke-width:0.5;" width="15" x="408.5" y="199.89"/><rect fill="#F1F1F1" height="2" style="stroke:#181818;stroke-width:0.5;" width="4" x="406.5" y="201.89"/><rect fill="#F1F1F1" height="2" style="stroke:#181818;stroke-width:0.5;" width="4" x="406.5" y="205.89"/><text fill="#000000" font-family="sans-serif" font-size="14" font-weight="bold" lengthAdjust="spacing" textLength="217" x="186.5" y="227.8851">test_image_create_api_view</text><text fill="#000000" font-family="sans-serif" font-size="14" lengthAdjust="spacing" textLength="4" x="186.5" y="244.182">&#160;</text><text fill="#000000" font-family="sans-serif" font-size="14" lengthAdjust="spacing" textLength="4" x="186.5" y="260.4789">&#160;</text></g><!--link 6ad1920dad0c0ea8cbee92c2d4bcd7bb to efa2d30e0fcad0ad7c6d9f8860505d0a--><g id="link_6ad1920dad0c0ea8cbee92c2d4bcd7bb_efa2d30e0fcad0ad7c6d9f8860505d0a"><path codeLine="78" d="M2075,120.16 C2075,142.93 2075,165.62 2075,188.42 " fill="none" id="6ad1920dad0c0ea8cbee92c2d4bcd7bb-to-efa2d30e0fcad0ad7c6d9f8860505d0a" style="stroke:#181818;stroke-width:1.0;"/><polygon fill="#181818" points="2075,194.42,2079,185.42,2075,189.42,2071,185.42,2075,194.42" style="stroke:#181818;stroke-width:1.0;"/></g><!--link 64385eb3483cd0650e0b58b20e8aa8fe to 04ed2a840efa60807caaff5fd7e340cd--><g id="link_64385eb3483cd0650e0b58b20e8aa8fe_04ed2a840efa60807caaff5fd7e340cd"><path codeLine="79" d="M2034.97,413.09 C2015.76,431.74 1997.104,449.8396 1977.944,468.4496 " fill="none" id="64385eb3483cd0650e0b58b20e8aa8fe-to-04ed2a840efa60807caaff5fd7e340cd" style="stroke:#181818;stroke-width:1.0;"/><polygon fill="#181818" points="1973.64,472.63,1982.8829,469.2287,1977.2266,469.1463,1977.309,463.4901,1973.64,472.63" style="stroke:#181818;stroke-width:1.0;"/></g><!--link 26f34cccec7583e52d34108331029609 to 04ed2a840efa60807caaff5fd7e340cd--><g id="link_26f34cccec7583e52d34108331029609_04ed2a840efa60807caaff5fd7e340cd"><path codeLine="80" d="M1744.64,273.06 C1835.75,297.04 1936.48,325.15 1943,333.78 C1972.91,373.39 1963.4687,427.5955 1950.9787,466.6255 " fill="none" id="26f34cccec7583e52d34108331029609-to-04ed2a840efa60807caaff5fd7e340cd" style="stroke:#181818;stroke-width:1.0;"/><polygon fill="#181818" points="1949.15,472.34,1955.7027,464.9873,1950.6739,467.5779,1948.0834,462.5491,1949.15,472.34" style="stroke:#181818;stroke-width:1.0;"/></g><!--link 26f34cccec7583e52d34108331029609 to a917fec99302ce1d5ab62bdfb17ed693--><g id="link_26f34cccec7583e52d34108331029609_a917fec99302ce1d5ab62bdfb17ed693"><path codeLine="81" d="M1665.13,274.19 C1699.92,294.03 1736.6881,315.0075 1770.4581,334.2675 " fill="none" id="26f34cccec7583e52d34108331029609-to-a917fec99302ce1d5ab62bdfb17ed693" style="stroke:#181818;stroke-width:1.0;"/><polygon fill="#181818" points="1775.67,337.24,1769.8338,329.3066,1771.3267,334.7629,1765.8704,336.2559,1775.67,337.24" style="stroke:#181818;stroke-width:1.0;"/></g><!--link dbbde3a7b28bf0c2916a46791a91e128 to 04ed2a840efa60807caaff5fd7e340cd--><g id="link_dbbde3a7b28bf0c2916a46791a91e128_04ed2a840efa60807caaff5fd7e340cd"><path codeLine="82" d="M1415.31,271.16 C1420.93,272.06 1426.5,272.94 1432,273.78 C1538.91,290.19 1839.17,256.66 1915,333.78 C1933.67,352.77 1935.9066,420.2905 1935.3166,466.5005 " fill="none" id="dbbde3a7b28bf0c2916a46791a91e128-to-04ed2a840efa60807caaff5fd7e340cd" style="stroke:#181818;stroke-width:1.0;"/><polygon fill="#181818" points="1935.24,472.5,1939.3546,463.5518,1935.3038,467.5004,1931.3552,463.4497,1935.24,472.5" style="stroke:#181818;stroke-width:1.0;"/></g><!--link dbbde3a7b28bf0c2916a46791a91e128 to 014a1bda34063d4b9b705f26053ff3c3--><g id="link_dbbde3a7b28bf0c2916a46791a91e128_014a1bda34063d4b9b705f26053ff3c3"><path codeLine="83" d="M1201.28,274.19 C1191.33,292.85 1182.2623,309.8353 1172.3423,328.4453 " fill="none" id="dbbde3a7b28bf0c2916a46791a91e128-to-014a1bda34063d4b9b705f26053ff3c3" style="stroke:#181818;stroke-width:1.0;"/><polygon fill="#181818" points="1169.52,333.74,1177.2834,327.6794,1171.872,329.3277,1170.2237,323.9163,1169.52,333.74" style="stroke:#181818;stroke-width:1.0;"/></g><!--link a3a242aeb674c60b23120d5a3b382e96 to 04ed2a840efa60807caaff5fd7e340cd--><g id="link_a3a242aeb674c60b23120d5a3b382e96_04ed2a840efa60807caaff5fd7e340cd"><path codeLine="84" d="M625.63,274.24 C694.7,322 820.27,401.02 941,436.67 C1121.1,489.86 1704.6614,506.2496 1879.0114,510.0396 " fill="none" id="a3a242aeb674c60b23120d5a3b382e96-to-04ed2a840efa60807caaff5fd7e340cd" style="stroke:#181818;stroke-width:1.0;"/><polygon fill="#181818" points="1885.01,510.17,1876.0991,505.9753,1880.0112,510.0613,1875.9252,513.9735,1885.01,510.17" style="stroke:#181818;stroke-width:1.0;"/></g><!--link a3a242aeb674c60b23120d5a3b382e96 to a917fec99302ce1d5ab62bdfb17ed693--><g id="link_a3a242aeb674c60b23120d5a3b382e96_a917fec99302ce1d5ab62bdfb17ed693"><path codeLine="85" d="M680.88,270.3 C686.64,271.6 692.37,272.78 698,273.78 C1163.43,356.69 1303.11,212.35 1760,333.78 C1765.2,335.16 1764.8599,334.7561 1770.0599,336.7561 " fill="none" id="a3a242aeb674c60b23120d5a3b382e96-to-a917fec99302ce1d5ab62bdfb17ed693" style="stroke:#181818;stroke-width:1.0;"/><polygon fill="#181818" points="1775.66,338.91,1768.6958,331.9458,1770.9933,337.1151,1765.824,339.4126,1775.66,338.91" style="stroke:#181818;stroke-width:1.0;"/></g><!--link 95d8cc67193f685d124b023fc1cf68cf to 04ed2a840efa60807caaff5fd7e340cd--><g id="link_95d8cc67193f685d124b023fc1cf68cf_04ed2a840efa60807caaff5fd7e340cd"><path codeLine="86" d="M887.29,274.15 C929.5,321.8 1008.34,400.72 1095,436.67 C1239.44,496.59 1722.1406,508.264 1879.0606,510.514 " fill="none" id="95d8cc67193f685d124b023fc1cf68cf-to-04ed2a840efa60807caaff5fd7e340cd" style="stroke:#181818;stroke-width:1.0;"/><polygon fill="#181818" points="1885.06,510.6,1876.1183,506.4714,1880.0605,510.5283,1876.0036,514.4706,1885.06,510.6" style="stroke:#181818;stroke-width:1.0;"/></g><!--link 95d8cc67193f685d124b023fc1cf68cf to a917fec99302ce1d5ab62bdfb17ed693--><g id="link_95d8cc67193f685d124b023fc1cf68cf_a917fec99302ce1d5ab62bdfb17ed693"><path codeLine="87" d="M994.72,270.75 C1000.54,271.84 1006.32,272.86 1012,273.78 C1341.25,326.94 1438.71,244.32 1760,333.78 C1765.18,335.22 1764.8386,334.8438 1770.0286,336.8638 " fill="none" id="95d8cc67193f685d124b023fc1cf68cf-to-a917fec99302ce1d5ab62bdfb17ed693" style="stroke:#181818;stroke-width:1.0;"/><polygon fill="#181818" points="1775.62,339.04,1768.6837,332.048,1770.9605,337.2265,1765.782,339.5033,1775.62,339.04" style="stroke:#181818;stroke-width:1.0;"/></g><!--link ae25e4989aebbec81c004a56068b32d5 to 04ed2a840efa60807caaff5fd7e340cd--><g id="link_ae25e4989aebbec81c004a56068b32d5_04ed2a840efa60807caaff5fd7e340cd"><path codeLine="88" d="M360.82,274.23 C439.36,322.17 581.91,401.59 716,436.67 C942.73,495.99 1681.3304,508.3112 1879.3004,510.5812 " fill="none" id="ae25e4989aebbec81c004a56068b32d5-to-04ed2a840efa60807caaff5fd7e340cd" style="stroke:#181818;stroke-width:1.0;"/><polygon fill="#181818" points="1885.3,510.65,1876.3465,506.5471,1880.3003,510.5927,1876.2547,514.5465,1885.3,510.65" style="stroke:#181818;stroke-width:1.0;"/></g><!--link ae25e4989aebbec81c004a56068b32d5 to 014a1bda34063d4b9b705f26053ff3c3--><g id="link_ae25e4989aebbec81c004a56068b32d5_014a1bda34063d4b9b705f26053ff3c3"><path codeLine="89" d="M428.71,270.47 C434.54,271.67 440.32,272.78 446,273.78 C736.97,324.9 838.47,212.82 1108,333.78 C1109.42,334.42 1105.5815,332.2226 1106.9715,332.9926 " fill="none" id="ae25e4989aebbec81c004a56068b32d5-to-014a1bda34063d4b9b705f26053ff3c3" style="stroke:#181818;stroke-width:1.0;"/><polygon fill="#181818" points="1112.22,335.9,1106.2855,328.0398,1107.8462,333.4771,1102.409,335.0378,1112.22,335.9" style="stroke:#181818;stroke-width:1.0;"/></g><!--link efa2d30e0fcad0ad7c6d9f8860505d0a to 04ed2a840efa60807caaff5fd7e340cd--><g id="link_efa2d30e0fcad0ad7c6d9f8860505d0a_04ed2a840efa60807caaff5fd7e340cd"><path codeLine="90" d="M2118.45,272.06 C2135.12,288.94 2152.23,310.41 2161,333.78 C2177.07,376.59 2187.83,399.64 2161,436.67 C2120.49,492.59 2042.6378,506.8773 1988.9678,510.3073 " fill="none" id="efa2d30e0fcad0ad7c6d9f8860505d0a-to-04ed2a840efa60807caaff5fd7e340cd" style="stroke:#181818;stroke-width:1.0;"/><polygon fill="#181818" points="1982.98,510.69,1992.2168,514.1078,1987.9698,510.3711,1991.7066,506.1241,1982.98,510.69" style="stroke:#181818;stroke-width:1.0;"/></g><!--link efa2d30e0fcad0ad7c6d9f8860505d0a to 64385eb3483cd0650e0b58b20e8aa8fe--><g id="link_efa2d30e0fcad0ad7c6d9f8860505d0a_64385eb3483cd0650e0b58b20e8aa8fe"><path codeLine="91" d="M2075,274.19 C2075,292.85 2075,309.13 2075,327.74 " fill="none" id="efa2d30e0fcad0ad7c6d9f8860505d0a-to-64385eb3483cd0650e0b58b20e8aa8fe" style="stroke:#181818;stroke-width:1.0;"/><polygon fill="#181818" points="2075,333.74,2079,324.74,2075,328.74,2071,324.74,2075,333.74" style="stroke:#181818;stroke-width:1.0;"/></g><!--link efa2d30e0fcad0ad7c6d9f8860505d0a to a917fec99302ce1d5ab62bdfb17ed693--><g id="link_efa2d30e0fcad0ad7c6d9f8860505d0a_a917fec99302ce1d5ab62bdfb17ed693"><path codeLine="92" d="M2031.62,260.28 C1994.35,281.72 1945.3815,309.8892 1903.6415,333.8892 " fill="none" id="efa2d30e0fcad0ad7c6d9f8860505d0a-to-a917fec99302ce1d5ab62bdfb17ed693" style="stroke:#181818;stroke-width:1.0;"/><polygon fill="#181818" points="1898.44,336.88,1908.2361,335.8615,1902.7746,334.3877,1904.2483,328.9262,1898.44,336.88" style="stroke:#181818;stroke-width:1.0;"/></g><!--link a917fec99302ce1d5ab62bdfb17ed693 to 04ed2a840efa60807caaff5fd7e340cd--><g id="link_a917fec99302ce1d5ab62bdfb17ed693_04ed2a840efa60807caaff5fd7e340cd"><path codeLine="93" d="M1864.54,413.09 C1877.76,431.74 1890.0823,449.1236 1903.2623,467.7336 " fill="none" id="a917fec99302ce1d5ab62bdfb17ed693-to-04ed2a840efa60807caaff5fd7e340cd" style="stroke:#181818;stroke-width:1.0;"/><polygon fill="#181818" points="1906.73,472.63,1904.7927,462.9736,1903.8402,468.5497,1898.2641,467.5972,1906.73,472.63" style="stroke:#181818;stroke-width:1.0;"/></g><!--link f9131189287ead50d1eb105f6b61629e to 04ed2a840efa60807caaff5fd7e340cd--><g id="link_f9131189287ead50d1eb105f6b61629e_04ed2a840efa60807caaff5fd7e340cd"><path codeLine="94" d="M2220.76,412.9 C2210.78,421.66 2199.53,430.27 2188,436.67 C2121.91,473.36 2041.78,492.5392 1988.72,502.3492 " fill="none" id="f9131189287ead50d1eb105f6b61629e-to-04ed2a840efa60807caaff5fd7e340cd" style="stroke:#181818;stroke-width:1.0;"/><polygon fill="#181818" points="1982.82,503.44,1992.3972,505.7371,1987.7367,502.531,1990.9428,497.8704,1982.82,503.44" style="stroke:#181818;stroke-width:1.0;"/></g><!--SRC=[hLNBZjDA4DtxAoAM8o6g-jqR5gpv0uIigkfgi4ZYA0wF0V7lz3Y80JBtjXV8oiAEpgDFdLBJVZz_FanVfkExuKJoWTxfxjdhUVxmglrUFDlHieke5G12a98YgUMCAO0roTcaZdJtRP3vS9gFUhpiW1GpHQmEkHY6h5Y8lOd8eCRXxirmT_Vnl5_kxePXU3jyVrIL-QnNHSpWii-YsHR6K5DYYDOtiH0KoVoX6AXWDb2eW81I4bRDHannB2Ko_wtu6x8Tm2jRbwmK21uKs2Sse8aeLLsH9pqVfcMPvkCjWLOonJPObQPE9KeekRaDuC6t3ol1fqa_tq8fOwmgELimqZBonC5mgOnHIyXsXIvwdcW_VTNp4zgOkULVJ0LRScm9crH8aX5kb3Mj17GwtIB1DHGb1yr-W0HHY6hrjKIr3gIioCDSz8d8QaQBcB99KQbuAAYCu6lWWC7aQsHK3jFn9_JNT2-wN9RhUBsm8LSQ1DZ592q8HizOMWg0W7-CruHgdOYeH9-i-XQuGqZM8fWS8A-A3-JZkJaQv-F-VfJzV7clo_WG_RZevUOOXRcefSWcSGKn6GEv43EsiIYQz4YwRsimJeTsXAK9NCwJVjAnj7_Ey_r8fsdLk9sk9UCCAOVe900RYwsXdcmRcT4S7laFzrU9_xGAwAYj4hNH1DiwdJcsl4shcAtLohKe7o_J4yFAlYIH437R6f8lQ1o3iLLGshlKfw9xCFC_mP6QjeOvvNOsLaae08vyW93Ock8VATVCHcdC5_qxgE_jwQxjy_ByPNV3XkuEhpIzoW_TblrBcjxk3zrwRdEpaQPJiA5Rvcrkjj5qi-cMUfkRRJHTDzrzs9ZDDfhUfBhtqJOtssXwcxUHfXznxwRSTgZkpRM9vWS0]--></g></svg>